Coordinates
version=1
nRows=17
nColumns=24
inDegrees=yes

Units are S.I. units (second, meters, Newtons, ...)
If the header above contains a line with 'inDegrees', this indicates whether rotational values are in degrees (yes) or radians (no).

endheader
time	pelvis_tilt	pelvis_list	pelvis_rotation	pelvis_tx	pelvis_ty	pelvis_tz	hip_flexion_r	hip_adduction_r	hip_rotation_r	knee_angle_r	ankle_angle_r	subtalar_angle_r	mtp_angle_r	hip_flexion_l	hip_adduction_l	hip_rotation_l	knee_angle_l	ankle_angle_l	subtalar_angle_l	mtp_angle_l	lumbar_extension	lumbar_bending	lumbar_rotation
      0.75000000000000000000	     11.09531828603709691095	      5.57387942203290354115	      4.81440279113626878882	      0.58694365096202061327	      1.03524634423069805678	      0.02517578945310625441	     10.52019444636950673555	     -6.68194628895374176381	      1.29727654199810538138	    -14.43641916836071459329	    -11.95799389895684861074	     -4.97731230292925541647	      3.03826638286060335403	    -19.92120840324283292944	     -2.19397640435844953899	     -0.95783969784552236426	    -30.64007695190717939226	    -12.65793847399684146637	     28.59822806146283014073	     39.36449021281144666773	    -28.42896144815137660089	     -3.04698248109855907018	     -8.76674424224983184217
      0.76700000000000001510	     11.36641581243380194621	      3.66260764242411740454	      4.33464685008703387581	      0.58979039101145203094	      1.03626173101834662127	      0.02816397261502177549	      9.43088224026052657223	     -4.42847039993756208531	      1.27644931399766581315	    -15.07143151593254337683	    -10.93285136102643129163	     -4.61171191723253581785	      3.43584170435526159437	    -17.66301684418314721370	     -4.61384935332997159207	     -2.79952127837687791967	    -36.70986807783944527728	    -15.40360459117674984952	     27.68813846391904220923	     38.98814197213236809603	    -28.26888357256554940022	     -0.98597948295921455930	     -6.97925360828264462754
      0.78300000000000002931	     11.33359295322062720857	      1.44843705659230570504	      3.67833283924752141303	      0.59189395231744845738	      1.03670400589449895890	      0.03045991135491686944	      8.49238640071293282574	     -1.89816335560491467049	      1.23124681788471224131	    -15.47027627205098276875	     -9.65146449959074637093	     -3.61514160264201045436	      3.77895418802398097569	    -15.07050410591682165773	     -7.05633384100582983223	     -4.76888345288480497430	    -42.70217211896228803880	    -17.18290464442064546802	     23.98964332696703749548	     37.79987051377329265733	    -27.77098095595932392143	      1.31353070384755232780	     -5.25450528078150558287
      0.80000000000000004441	     10.81633312858940243473	     -0.91108322748158243609	      3.69358130733992862105	      0.59442735556793890872	      1.03690233379302010341	      0.03261715370712044149	      7.81659543679555390838	      0.88137905265672078503	      0.76015704066870715128	    -15.30045225271501685427	     -8.91516013989665623285	     -4.08562983141316760083	      4.49560774462616663527	    -11.39492546486659385607	    -10.09970847679530869812	     -5.91700009995244524674	    -49.22364392874266769695	    -17.19268931422940838161	     21.45510695218511898474	     19.48850958375443909176	    -26.73191484221855063197	      3.93456746785712629944	     -3.80208185357567485241
      0.81699999999999994849	     11.28360741322093474537	     -2.58595862942560827946	      3.90668149202847114765	      0.59487122585013574305	      1.03886431581065874497	      0.03399287812574953993	      5.81974150743995366497	      2.84909808488017368688	      0.32695259279675326081	    -14.70012128395745065745	     -8.03446806783157185805	     -4.11722548155728418351	      4.47561213874315644290	     -8.96547967610510454506	    -12.15631648836355438448	     -6.18689298178841795561	    -54.50340704194532293059	    -16.84669325878761725335	     17.20211447447867669780	     19.00119371770679066458	    -26.96503985795636637590	      5.96270157006082346385	     -3.02116768601949248207
      0.83299999999999996270	     11.56335258733556869970	     -4.04328634455097812861	      3.77614074625957663045	      0.59533439550832079057	      1.04097444285584672663	      0.03628361824299730642	      4.00925025155803904653	      4.70838632704694060038	      0.57781769064743049302	    -13.79809799487557953057	     -7.53488047260754978396	     -4.46160466465023919369	      4.49692960032439614793	     -6.48818155348266412119	    -13.99744462159577906846	     -6.44674003735642564550	    -59.12714910207490248695	    -15.28593489057427134981	     14.32147520601622758818	     18.64625210948293343449	    -27.09662150202915142927	      7.54532516026627231298	     -1.58709327224230500875
      0.84999999999999997780	     10.83246301788179799530	     -5.11069762061084542637	      2.86561103303864639358	      0.59487615647890201842	      1.04182836349752316885	      0.04116437502679602678	      3.35685944427155957825	      6.30574880181652375200	      1.98661085724614472348	    -13.11284741054588387499	     -7.52034315029204147862	     -5.99488125049069875416	      4.00335110554920792225	     -3.04577730122613576924	    -15.39842120164756344991	     -7.28097757321137972752	    -63.01897368464930337950	    -13.48730004944954785628	     11.58775904839967552107	     17.37544737152117946266	    -26.35992707448687966121	      8.11326165871916238359	     -0.10237616550236845747
      0.86699999999999999289	     11.10621302178497593616	     -5.94172267786018259983	      2.74807713993636282268	      0.59483489006801226751	      1.04451407047240896198	      0.04336752030987778284	      1.41451927284701484133	      7.38300317701000796689	      2.62689711799598279995	    -12.25978274662911893245	     -6.75815422496468798386	     -5.90858656617814492762	      3.87413751255912774951	     -0.76369667324929191299	    -16.42457845677020245034	     -7.16546362122272650907	    -66.00433644740040506349	    -10.56497328327997209385	     10.14184183492101709589	     17.06288504838683905973	    -26.49987626797753392793	      8.95338840541257141581	      0.87406132686385218378
      0.88300000000000000711	     10.83970482118384381920	     -6.68879412147768181995	      2.23661554153241493026	      0.59476758121135930857	      1.04675440070327629982	      0.04558515745686876619	     -0.16658408979944736017	      8.33040403743970081507	      3.45033760320176519087	    -11.00982010330884897087	     -5.51836840413322704535	     -6.28025473011874701967	     -2.16920753824658829600	      1.86061008289406304428	    -17.19145495150810631912	     -7.41816893212495998000	    -68.20027345124658779696	     -6.82830900513800731488	      9.70189140301342689554	      5.15980996234789834887	    -26.20626010007110551214	      9.55011767064352312673	      1.80334485030417712714
      0.90000000000000002220	     11.11927487626870991733	     -7.37747835130900941891	      1.83628052567547572771	      0.59479537874121435337	      1.04901381519040981516	      0.04714209552149708354	     -2.31953976998032285195	      9.14533990461815626816	      4.32225017770540631545	     -9.87787057015696134954	     -4.94923433718299854434	     -6.11239988127368505388	     -1.89393191895751145104	      3.84360305034471405605	    -17.84357061187283832737	     -7.32783761282539636284	    -69.61445022762291046092	     -4.75258314125681557982	     10.39325608695949476612	      5.21754368374632893079	    -26.44774646856057387367	     10.09305568446191792020	      2.99607344366559535942
      0.91700000000000003730	     11.55197525108581579900	     -7.71373347293958033788	      1.05614686058660733892	      0.59423675030434475186	      1.05186254047324712069	      0.04764511388542670700	     -4.60982948686324434107	      9.33359957533271078489	      5.20443086905697871458	     -8.75730891589186377644	     -4.55068371667649707035	     -5.28291833632043683622	     -1.64940250747826633315	      5.13651688348211088453	    -17.86835522530661535257	     -7.67534334877845392242	    -69.81860685695031065734	     -2.96315462978684163176	     11.24536645829122782914	      5.23426856283908747969	    -26.97071711529394733020	     10.30954235003355279332	      4.02348902994985202497
      0.93300000000000005151	     11.55318510322216063457	     -7.90909644032200453978	     -0.39981964246270934593	      0.59288726296673011085	      1.05432071613975408830	      0.04836118998560295923	     -6.21932701964323619848	      9.21319133264900003155	      5.94215905747853145868	     -8.05663356412505571313	     -4.19899258731133429023	     -4.07719721911368093714	     -1.28796800334746497363	      6.61046764669713304841	    -17.66469697200931676662	     -8.46796165065233452651	    -69.29709251497416744314	     -1.71364435210615284610	     12.16088399254573282349	      5.25327246896923583108	    -27.27111574633281421143	     10.17354079174346814796	      6.12812114619580672326
      0.94999999999999995559	     11.69407143297108397917	     -7.92987256836293585849	     -1.56362870523297248226	      0.59136690507728628674	      1.05639763390635343931	      0.04923948204926206079	     -7.86474989801304769088	      8.97095346151570360860	      6.54478797335258999368	     -7.53470053587753518798	     -3.64822787709419893432	     -3.26871664638023817773	     -0.84959004549284433683	      7.83500972642105431021	    -17.33372109701086216660	     -8.84900403175614513884	    -67.86236730718894705205	     -0.73372189591084835403	     13.76424301485230294873	      5.25621683383673321543	    -27.65624732781401107218	      9.80243057618541868692	      7.42899591254449198630
      0.96699999999999997069	     11.73912311512758854803	     -7.82596315855840352071	     -2.81425024211629803972	      0.58943625923524212151	      1.05824484042675415196	      0.05041345178320790626	     -9.34326144865225138858	      8.48946036895771172226	      7.40155778000319131138	     -6.98026876985022148858	     -3.31615948190773712767	     -2.25052835130293793497	     -0.42026087957951813179	      8.95821094723994981734	    -16.96105873017216225662	     -9.35876110728604970745	    -65.48881951892892061551	     -0.38737888520656726943	     15.20586042246050162419	      5.20051520548961931922	    -27.95183520748836514258	      9.22888245885688540682	      8.40100349729041973035
      0.98299999999999998490	     12.21830479970194005546	     -7.94216463511074088899	     -3.66382633861056339342	      0.58760543027259404258	      1.06007665279874130349	      0.05091039696707158613	    -11.36725222309295446621	      8.23182241086338706282	      7.91765522725642689750	     -6.11357088825985250935	     -3.61790551916999358895	     -1.86198034634797093823	      1.17658624238247733196	      9.55391835387301036064	    -16.74471865242485790759	     -9.51294439967387894797	    -62.68363199108746641741	      0.42622811039870439620	     16.09244470470928334294	      4.76018329683014318476	    -28.69629900211829465206	      9.01278285998132488999	      9.39316723567078248891
      1.00000000000000000000	     12.10656971744693954918	     -7.80949774865157930748	     -3.86694291718654081791	      0.58592289826418497700	      1.06135368516373929104	      0.05059098179964636316	    -12.57148337704248675095	      7.93757706296814902203	      8.01332724995459422246	     -5.88072370014718170950	     -3.04592024484404788609	     -1.95738946139565483939	      1.28624711749781894810	     10.72320832476412100220	    -16.06173769175258669861	     -8.75564780599339442801	    -58.88260978757838870479	      0.72613936320033156679	     16.49927891286842651652	      4.75301542135830956681	    -28.73770619246689506099	      8.86342291839868856584	      9.78827666255188866273
      1.01699999999999990408	     12.46638216501563434235	     -7.63067737465955442389	     -3.93829840340022485634	      0.58351688014889180334	      1.06269134421125244216	      0.04974378480957736964	    -14.23276691557844664260	      7.49343132887877594328	      7.67222765339452728028	     -5.27565786975139072723	     -2.62461015989344126353	     -0.76772111128186060203	      1.65187245609357158393	     11.11085693425321174743	    -15.16567801114347879832	     -7.96189653889362958239	    -54.34680229451041810762	      0.69045414885158618024	     16.02944668685299589583	      4.84434128518175466382	    -29.30764902736022037288	      8.63444668221199407299	      9.90953943458072039618
